<svg xmlns="http://www.w3.org/2000/svg" viewBox="0 0 2500 1002"><path d="M323.3 218.7C146.9 218.7 0 293.5 0 519.2 0 698 98.8 810.6 327.8 810.6c269.6 0 286.8-177.6 286.8-177.6H484s-28 95.6-164.2 95.6c-110.9 0-190.7-74.9-190.7-180h499.2v-65.9c0-103.8-65.9-264-305-264zm-4.6 84.2c105.6 0 177.6 64.7 177.6 161.6H132c0-102.9 94-161.6 186.7-161.6z" fill="#212529"/><path d="M628.2.1v697.1c0 39.6-2.8 95.1-2.8 95.1H750s4.5-39.9 4.5-76.4c0 0 61.5 96.3 228.9 96.3 176.2 0 295.9-122.4 295.9-297.7 0-163.1-110-294.2-295.7-294.2-173.9 0-227.9 93.9-227.9 93.9V.1H628.2zm323.3 306.5c119.7 0 195.8 88.8 195.8 208 0 127.8-87.9 211.4-194.9 211.4-127.7 0-196.6-99.7-196.6-210.3-.1-102.9 61.7-209.1 195.7-209.1z" fill="#212529"/><path d="M1588.9 218.7c-265.3 0-282.3 145.2-282.3 168.5h132s6.9-84.8 141.1-84.8c87.2 0 154.8 39.9 154.8 116.7v27.3h-154.8c-205.5 0-314.2 60.1-314.2 182.1 0 120.1 100.4 185.4 236 185.4 184.9 0 244.4-102.2 244.4-102.2 0 40.6 3.1 80.7 3.1 80.7h117.4s-4.5-49.6-4.5-81.4V436.5c.2-179.9-144.9-217.8-273-217.8zm145.7 309.6v36.4c0 47.5-29.3 165.6-201.9 165.6-94.5 0-135-47.2-135-101.9 0-99.5 136.5-100.1 336.9-100.1z" fill="#212529"/><path d="M1791 241.5h148.5l213.2 427.1 212.7-427.1H2500l-387.4 760.4h-141.2l111.8-212L1791 241.5z" fill="#212529"/></svg>