<svg xmlns="http://www.w3.org/2000/svg" viewBox="0 0 1844.4 505.3"><path d="M222 .1c-20.4.5-41 4.8-60.5 11.9C85.8 43.5 33.2 112.4 9.4 195.1c-4 15.5-7.3 31.1-9 47.1 0 .5-1.3 16.3 1 12 2.3-3.7 3.3-9.3 4.5-13.5A410.2 410.2 0 0153 133C104.6 57 187.5 8.1 275.2 35.2a200 200 0 0145.4 23c2.7 2 23 18 18.5 3.5-3.8-11.5-13.3-21.3-21.6-29.1A137.3 137.3 0 00222 .1zM862.1 76c-11.8 0-20.8 4-27.1 12.3-6.5 8-9.5 20-9.5 35.8v114.3a159 159 0 00-44.8-35.4 108.3 108.3 0 00-33.4-10c-7.6-1-15.3-1.5-23-1.5-38.3 0-69.7 13.5-93.2 40.6-23.6 27.1-35.3 64.7-35.3 113 0 22.8 3 44.1 8.8 63.6 6 19.5 14.8 36.6 26.3 51.1a115.5 115.5 0 0092.5 45.4 125.2 125.2 0 0038.5-5.8c11.7-4 22.8-9.7 32.8-17a200.2 200.2 0 0030.8-29.1v7.5c0 14.3 3.5 25.1 10.3 32.8a34.4 34.4 0 0026.3 11.5 35 35 0 0026.1-11c6.8-7.5 10-18.5 10-33.3V120.1c0-14.3-3-25.3-9.3-32.8A33.7 33.7 0 00862.1 76zm945.7 0c-11.8 0-20.8 4-27.1 12.3-6.3 8-9.5 20-9.5 35.8v114.3a159 159 0 00-44.8-35.4c-9.5-4.8-20.8-8.2-33.3-10-7.6-1-15.3-1.5-23.1-1.5-38.3 0-69.4 13.5-93.2 40.6-23.5 27.1-35.3 64.7-35.3 113 0 22.8 3 44.1 9 63.6s14.5 36.6 26.1 51.1a115.5 115.5 0 0092.5 45.4c8.5 0 16.5-.8 24-2.3 5-.7 9.8-2 14.5-3.5 11.7-4 22.8-9.7 32.8-17a187.5 187.5 0 0030.8-29.1v7.5c0 14.3 3.5 25.1 10.3 32.8 7 7.5 15.8 11.5 26.3 11.5 10.8 0 19.5-3.8 26.3-11 6.8-7.5 10.3-18.5 10.3-33.3V120.1c0-14.3-3.3-25.3-9.5-32.8a33.8 33.8 0 00-27.1-11.3zM202.3 96.9a62.2 62.2 0 00-30.5 7 63.3 63.3 0 00-27.8 85.4 63.3 63.3 0 0085.4 27.8 63.3 63.3 0 0027.8-85.4 63.4 63.4 0 00-54.9-34.8zm873 93.7a178 178 0 00-61.1 11 130.8 130.8 0 00-77.9 82.5 193.2 193.2 0 00-10.3 63.6c0 48.6 14 86.7 41.6 115 26.1 26.8 61.9 40.8 107.8 42.3a178.1 178.1 0 0065.6-8.2 144.6 144.6 0 0041.6-21.3 97.8 97.8 0 0024.8-27.1 50.1 50.1 0 008.3-24.3c0-7.8-2.5-14-7.3-18.3-5-4.2-11.5-6.5-19.3-6.5-7.5 0-13 1.8-17 5-7.7 7.3-15.6 14.5-23.5 21.6a221.6 221.6 0 01-19.8 14.8c-7.3 4.5-14.5 8-22.3 10-7.5 2.2-16 3.3-25.3 3.3-2 0-4 0-5.8-.3a70 70 0 01-32.1-10 73.2 73.2 0 01-27.3-29.8 104 104 0 01-10.8-46.6h151.3c20.1 0 35.8-3 47.1-8.5 11-6 16.6-18.5 16.6-37.8a127.9 127.9 0 00-64.6-111.3 150 150 0 00-77.7-19l-2.6-.1zm309.5 0c-22.3.3-42.9 4-61.1 11a134.5 134.5 0 00-48.4 32.1 142 142 0 00-29.5 50.4 193.2 193.2 0 00-10.3 63.6c0 48.6 13.8 86.7 41.3 115 26 26.8 62.1 40.8 108 42.3a178.6 178.6 0 0065.6-8.2 144.6 144.6 0 0041.6-21.3c11-8.8 19.3-17.8 24.8-27.1a50.1 50.1 0 008.3-24.3 23 23 0 00-7.5-18.3 28.5 28.5 0 00-19.3-6.5 26 26 0 00-16.8 5c-9.8 9-17.5 16.3-23.5 21.6a226 226 0 01-20.1 14.8c-7 4.5-14.5 8-22 10-7.8 2.2-16 3.3-25.3 3.3-2 0-4 0-5.8-.3a70 70 0 01-32.1-10 75.2 75.2 0 01-27.6-29.8 105.2 105.2 0 01-10.5-46.6h151.1c20.3 0 36.1-3 47.1-8.5 11.3-6 16.8-18.5 16.8-37.8a130.2 130.2 0 00-64.9-111.3 149.2 149.2 0 00-77.7-19l-2.2-.1zm-1052.4.5a32.7 32.7 0 00-26.3 11c-6.5 7-9.8 18-9.8 32.8v223.3c0 15 3.5 26.8 10.8 34.8a34.8 34.8 0 0027.6 12.3c11.5 0 20.8-4 28.1-11.8 7.3-8 11-19.6 11-35.3v-96.5c0-31.8 1.8-53.1 5.5-64.7a71.8 71.8 0 0125.1-34.1 63.8 63.8 0 0137.6-12.3c21 0 35.3 6.8 42.3 20.3s10.5 33.1 10.5 58.6V458c0 15 3.5 26.8 10.8 34.8a35.4 35.4 0 0028.1 12.3c11.3 0 20.5-4 27.6-12 7-7.8 10.8-19.5 10.8-35.1V314.6c0-17-.7-31.1-2.3-41.9a86.5 86.5 0 00-10-30.8 84 84 0 00-35.8-37.6c-16-8.8-34.3-13.3-54.6-13.3-21.1 0-39.6 4.2-55.9 12.5-16 8.5-30.8 21.5-44.6 39.6v-9.5c0-9-1.5-16.8-4.7-23.3a34.2 34.2 0 00-31.8-19.2zm742.7 53.3h.2a64 64 0 0148.6 19.5c12.5 13 19.5 32.8 21.5 59.4h-140.3c2.8-26.1 10.3-45.9 22.6-59.1a61.9 61.9 0 0147.4-19.8zm309.5 0h.3a64 64 0 0148.6 19.5c12.3 13 19.6 32.8 21.3 59.4h-140.1c2.5-26.1 10-45.9 22.6-59.1a61.5 61.5 0 0147.3-19.8zM746.3 249h1c13.3 0 25.6 4 36.6 11.8a78.8 78.8 0 0127.3 33.8c6.5 14.8 10 32.6 10 53.1 0 22-3.5 40.3-10 54.9a68 68 0 01-64 42.8h-.2a67.7 67.7 0 01-37.1-11 73.8 73.8 0 01-26.8-33.1 132.6 132.6 0 01-9.8-53.6c0-19.8 3-37.3 9-52.1a78.2 78.2 0 0126-34.6 62 62 0 0138-12zm945.9 0h.8c13.3 0 25.6 4 36.8 11.8a80.6 80.6 0 0127.1 33.8c6.8 14.8 10 32.6 10 53.1 0 22-3.3 40.3-10 54.9a74.5 74.5 0 01-26.8 32.3c-11.1 7-24 10.6-37.1 10.5h-.2a67.7 67.7 0 01-37.1-11 75.1 75.1 0 01-26.8-33.1 132.6 132.6 0 01-9.8-53.6c0-19.8 3-37.3 9.3-52.1 6-15 14.8-26.6 25.8-34.6a61.9 61.9 0 0138-12zm-1447 2.5a133.5 133.5 0 01-84.2 18v184.4c0 17 4 29.8 11.8 38.3 8 8.8 17.8 13 30.1 13 12.5 0 22.8-4.3 30.6-12.8 7.8-8.5 11.8-21.3 11.8-38.6l-.1-202.3z" fill-rule="evenodd" clip-rule="evenodd" fill="#212529"/></svg>