<svg xmlns="http://www.w3.org/2000/svg" viewBox="0 0 2279.4 922.6"><path d="M0 0v922.6h2279.4V0H0zm512.2 831.6L356.9 317.8h-2.1L251.5 831.6H64.3L222.9 89h247.8l152.2 515h2.1L729.2 89h187.3L759.1 831.6H512.2zm757.4 0l65.9-318.1h-235.2l-66 318.1H835.5L989.8 89h198.9l-58.4 284.1h235L1423.9 89h198.9l-154.3 742.6h-198.9zm876.5-574.5c-38.3-18-90.4-34-163.8-34-78.7 0-142.5 11.6-142.5 71.3 0 105.2 288.3 66 288.3 291.5 0 205.3-190.5 258.5-362.8 258.5-76.6 0-164.9-18.2-229.7-38.4l46.8-151c39.3 25.6 118.1 42.6 182.9 42.6 61.8 0 158.5-11.7 158.5-88.3 0-119.2-288.3-74.5-288.3-284 0-191.6 168.1-249 330.9-249 91.5 0 177.6 9.6 227.7 33l-48 147.8z" fill-rule="evenodd" clip-rule="evenodd" fill="#212529"/></svg>