<svg xmlns="http://www.w3.org/2000/svg" viewBox="0 0 2269.3 575.6"><path d="M415.3 43.4C388.7 13 340.5 0 278.9 0H100a25.6 25.6 0 00-25.3 21.6L.2 494A15.3 15.3 0 0013 511.5l2.4.2h110.4l27.7-175.9-.9 5.5a25.5 25.5 0 0125.2-21.6h52.5c103.1 0 183.8-41.9 207.4-163l1.8-10.5c7.1-44.7 0-75.2-24.2-102.8" fill="#003087"/><path d="M1767.3 268.2c-6.8 44.3-40.6 44.3-73.3 44.3h-18.6l13.1-82.8c.8-5 5.1-8.7 10.2-8.7h8.5c22.3 0 43.3 0 54.2 12.7 6.3 7.7 8.3 18.9 5.9 34.5M1753 152.5h-123.5c-8.4 0-15.6 6.1-17 14.5l-49.9 316.6c-.9 5.6 3 10.9 8.6 11.8l1.6.1h63.4c5.9 0 10.9-4.3 11.9-10.1l14.2-89.8a17.2 17.2 0 0116.9-14.5h39.1c81.4 0 128.3-39.3 140.6-117.4 5.5-34.1.2-60.9-15.7-79.7-17.7-20.5-48.9-31.5-90.2-31.5" fill="#434c51"/><path d="M886.5 268.2c-6.8 44.3-40.6 44.3-73.4 44.3h-18.6l13.1-82.8c.8-5 5.1-8.7 10.2-8.7h8.5c22.3 0 43.3 0 54.2 12.7 6.5 7.7 8.4 18.9 6 34.5m-14.3-115.7H748.7c-8.4 0-15.6 6.1-17 14.5l-49.9 316.6a10.3 10.3 0 008.6 11.8l1.6.1h59a17 17 0 0016.9-14.5l13.5-85.4a17.2 17.2 0 0116.9-14.5h39.1c81.4 0 128.3-39.4 140.6-117.4 5.5-34.1.2-60.9-15.7-79.7-17.6-20.5-48.7-31.5-90.1-31.5m286.7 229.4a65.9 65.9 0 01-66.7 56.5c-17.1 0-30.9-5.5-39.7-16a50.2 50.2 0 01-9.3-41.5 66.2 66.2 0 0166.3-56.9c16.8 0 30.4 5.6 39.4 16.1a51 51 0 0110 41.8m82.4-115.1h-59.1c-5.1 0-9.4 3.7-10.2 8.7l-2.6 16.5-4.1-6c-12.8-18.6-41.3-24.8-69.8-24.8-65.3 0-121.1 49.5-132 118.9-5.7 34.7 2.4 67.8 22 90.9 18 21.2 43.8 30.1 74.5 30.1 52.7 0 81.9-33.8 81.9-33.8l-2.6 16.4a10.3 10.3 0 008.6 11.8l1.6.1h53.2c8.4 0 15.6-6.1 17-14.5l32-202.4c.9-5.6-3-10.9-8.6-11.8l-1.8-.1" fill="#212529"/><path d="M2039.7 381.9a65.9 65.9 0 01-66.7 56.5c-17.1 0-30.9-5.5-39.7-16a50.2 50.2 0 01-9.3-41.5 66.2 66.2 0 0166.3-56.9c16.8 0 30.4 5.6 39.4 16.1a51 51 0 0110 41.8m82.4-115.1H2063c-5.1 0-9.4 3.7-10.2 8.7l-2.6 16.5-4.1-6c-12.8-18.6-41.3-24.8-69.8-24.8-65.3 0-121.1 49.5-132 118.9-5.7 34.7 2.4 67.8 22 90.9 18 21.2 43.8 30.1 74.5 30.1 52.7 0 81.9-33.8 81.9-33.8l-2.6 16.4a10.3 10.3 0 008.5 11.8l1.7.1h53.2c8.4 0 15.6-6.1 17-14.5l32-202.4c.9-5.6-3-10.9-8.6-11.8l-1.8-.1" fill="#434c51"/><path d="M1556.3 266.8h-59.5c-5.7 0-11 2.8-14.2 7.5l-82 120.7-34.8-116a17.3 17.3 0 00-16.4-12.3H1291a10.3 10.3 0 00-9.7 13.6l65.4 192.1-61.6 86.9a10.3 10.3 0 008.4 16.3h59.4c5.6 0 10.9-2.8 14.1-7.4l197.7-285.3a10.3 10.3 0 00-8.4-16.1" fill="#212529"/><path d="M2191.8 161.3l-50.7 322.4c-.9 5.6 3 10.9 8.6 11.8l1.6.1h51c8.4 0 15.6-6.1 17-14.5l50-316.6c.9-5.6-2.9-10.9-8.6-11.8l-1.6-.1h-57c-5.2-.1-9.5 3.6-10.3 8.7" fill="#434c51"/><path d="M415.3 43.4C388.7 13 340.5 0 278.9 0H100a25.6 25.6 0 00-25.3 21.6L.2 494A15.3 15.3 0 0013 511.5l2.4.2h110.4l27.7-175.9-.9 5.5a25.5 25.5 0 0125.2-21.6h52.5c103.1 0 183.8-41.9 207.4-163l1.8-10.5c7.1-44.7 0-75.2-24.2-102.8" fill="#003087"/><path d="M183.3 146.8a22.4 22.4 0 0122.1-18.9h140.2c16.6 0 32.1 1.1 46.3 3.3 7.7 1.2 15.4 3 22.9 5.1 8.6 2.4 16.8 5.7 24.7 9.8 7-44.8 0-75.2-24.2-102.9C388.6 13 340.5 0 278.9 0H100a25.6 25.6 0 00-25.3 21.6L.2 494A15.4 15.4 0 0013 511.6l2.4.2h110.4l27.7-175.9 29.8-189.1z" fill="#212529"/><path d="M439.6 146.2l-1.8 10.5c-23.6 121.1-104.3 163-207.4 163h-52.5a25.5 25.5 0 00-25.2 21.6l-26.9 170.4-7.6 48.3a13.4 13.4 0 0013.3 15.6h93.1c11 0 20.4-8 22.1-18.9l.9-4.7 17.5-111.2 1.1-6.1a22.4 22.4 0 0122.1-18.9h13.9c90.2 0 160.8-36.6 181.4-142.6 8.6-44.3 4.1-81.2-18.6-107.2a89 89 0 00-25.4-19.8" fill="#434c51"/><path d="M414.9 136.4a179.8 179.8 0 00-22.9-5.1 290.1 290.1 0 00-46.3-3.4H205.5c-11 0-20.4 8-22.1 18.9l-29.8 189-.9 5.5a25.5 25.5 0 0125.2-21.6h52.5c103.1 0 183.8-41.9 207.4-163l1.8-10.5c-6.2-3.3-12.7-6-19.4-8.2l-5.3-1.6"/></svg>