<svg xmlns="http://www.w3.org/2000/svg" viewBox="0 0 73.54 46.89"><g id="Layer_2" data-name="Layer 2"><g id="Layer_1-2" data-name="Layer 1"><circle cx="59.09" cy="9.08" r="7.83" style="fill:none;stroke:#fff;stroke-miterlimit:10;stroke-width:2.5px"/><path d="M70.83,24.68a12.52,12.52,0,0,0-5.36-5.2q-3.19,2.6-6.38,5.2l-6.39-5.2a12.34,12.34,0,0,0-6.46,14.05h25.7A12.71,12.71,0,0,0,70.83,24.68Z" style="fill:none;stroke:#fff;stroke-miterlimit:10;stroke-width:2.5px"/><circle cx="36.77" cy="21.2" r="7.83" style="fill:none;stroke:#fff;stroke-miterlimit:10;stroke-width:2.5px"/><path d="M48.51,36.79a12.48,12.48,0,0,0-5.36-5.19l-6.38,5.19L30.38,31.6a12.32,12.32,0,0,0-6.46,14h25.7A12.71,12.71,0,0,0,48.51,36.79Z" style="fill:none;stroke:#fff;stroke-miterlimit:10;stroke-width:2.5px"/><circle cx="14.45" cy="9.08" r="7.83" style="fill:none;stroke:#fff;stroke-miterlimit:10;stroke-width:2.5px"/><path d="M2.7,24.68a12.58,12.58,0,0,1,5.37-5.2l6.38,5.2,6.38-5.2a12.52,12.52,0,0,1,5.36,5.2,12.71,12.71,0,0,1,1.11,8.85H1.6A12.68,12.68,0,0,1,2.7,24.68Z" style="fill:none;stroke:#fff;stroke-miterlimit:10;stroke-width:2.5px"/></g></g></svg>