<svg xmlns="http://www.w3.org/2000/svg" viewBox="0 0 2200.7 660.8"><path d="M106.7 128.7h42V83.3H13.9v45.4h42v160.7h50.8V128.7zm213.2-45.4v108.5c0 26.8-1.8 56-34.5 56s-34.5-29.2-34.5-56V83.3h-50.8v115.8c0 26.5 1 52.7 20.5 72.7 16.3 16.9 42 22.9 64.8 22.9 22.8 0 48.5-6 64.8-22.9 19.4-20 20.5-46.2 20.5-72.7V83.3h-50.8zm218.7 121.6c27.8-5.2 42.8-29.8 42.8-58.2 0-44-29.3-63.4-67.9-63.4h-76v206h50.8V210h.5l48 79.3H600l-61.4-84.4zm-50.3-80.6h4.9c16.6 0 35.3 3.3 35.3 25.7s-18.7 25.7-35.3 25.7h-4.9v-51.4zm211.2 44h-.5v-85h-50.8v206H699V200h.5l65.6 89.4H831l-84.8-108.5L824 83.4h-63l-61.5 84.9zm230.5-85h-50.8v206H930v-206zm194.5 11.5a128.4 128.4 0 00-61.2-17c-39.2 0-67.4 27.3-67.4 69.1 0 39.9 21 48.6 52.9 58.2 10.9 3.3 30.9 8.5 30.9 23.5 0 14.5-12.7 20.8-24.6 20.8-17.4 0-32.4-9.6-45.1-21.3l-21.8 43.2c20 14.8 44.1 23.5 68.7 23.5 19.7 0 40.2-5.7 55.5-19.4 15.5-13.9 20.2-35 20.2-55.5 0-33.3-21-47.8-48.2-56.3l-13-4.1c-8.8-3-22.6-7.7-22.6-19.7 0-11.5 12.5-17.2 21.8-17.2 12.5 0 24.4 5.5 33.7 13.7l20.2-41.5zm117.2 68V83.3h-50.8v206h50.8v-84.4h73.4v84.4h50.8v-206h-50.8v79.5h-73.4zM137.4 544.4l12.7 35.8h54.2l-73.6-206.1H75.2L0 580.2h53.9l13.5-35.8h70zm-13.7-41H81.4l21-65.6h.5l20.8 65.6zm168.7-129.3h-50.8v206.1h50.8V374.1zm162 121.6c27.7-5.2 42.8-29.8 42.8-58.2 0-44-29.3-63.4-67.9-63.4h-76v206.1h50.8V501h.5l48 79.2h63.3l-61.5-84.5zm-50.3-80.6h4.9c16.6 0 35.3 3.3 35.3 25.7s-18.7 25.7-35.3 25.7h-4.9v-51.4zm205.9-41h-50.8v206.1H671v-45.4h-61V374.1zm157.6 0h-50.8v206.1h50.8V374.1zm63.3 206.1h50.8V453.9h.5l93.1 126.2h50.8v-206h-50.8v126h-.5l-93.1-126h-50.8v206.1zM1203 419.5v-45.4h-111.2v206.1H1203v-45.4h-60.4v-35.5h57.3V454h-57.3v-34.4h60.4zm185.9-33.9a128.3 128.3 0 00-61.2-16.9c-39.2 0-67.4 27.3-67.4 69.1 0 39.9 21 48.7 52.9 58.2 10.9 3.3 30.9 8.5 30.9 23.5 0 14.5-12.7 20.8-24.6 20.8-17.4 0-32.4-9.6-45.1-21.3l-21.8 43.2c20 14.8 44.1 23.5 68.7 23.5 19.7 0 40.2-5.7 55.5-19.4 15.6-14 20.2-35 20.2-55.5 0-33.3-21.1-47.8-48.2-56.3l-13-4.1c-8.8-3-22.5-7.7-22.5-19.7 0-11.5 12.4-17.2 21.8-17.2a52 52 0 0133.7 13.7l20.1-41.6z" fill-rule="evenodd" clip-rule="evenodd" fill="#212529"/><path d="M1586.4 330.4c0-174.7 134.3-316.2 300.1-316.2 165.7 0 300.1 141.6 300.1 316.2s-134.3 316.2-300.1 316.2-300.1-141.5-300.1-316.2z" fill="none" stroke="#212529" stroke-width="28.4" stroke-miterlimit="33.9"/><path d="M1977 261.1c-13.8-98-94.6-146.4-145.1-175.4-46.8-26.9-88.8-39.1-89.8-36a243.4 243.4 0 0187.5 188.7c0 125.7-92 228.8-209 238.4l7.4 11.7c149.7-23.8 550.3-99.9 550.3-99.9l1.1-8.9-243-8.5c26.8-29 45.2-78.2 40.6-110.1z" fill-rule="evenodd" clip-rule="evenodd" fill="#212529"/></svg>